<svg xmlns="http://www.w3.org/2000/svg" width="341" height="300" viewBox="0 0 341 300" fill="none"><g clip-path="url(#clip0_114_12)"><path d="M77.3845 158.604L168.832 105.898L170.491 104.926L172.168 105.898L263.598 158.604L187.475 290.226C184.05 296.166 178.208 299.424 172.186 299.928C171.068 300.054 169.968 300.054 168.85 299.928C162.828 299.46 156.987 296.202 153.525 290.226L77.3845 158.604Z" fill="#383838"></path><path d="M172.186 102.046V0H321.366C327.117 0 332.003 2.35809 335.483 5.99424C336.258 6.80427 336.98 7.68631 337.611 8.62234C341.559 14.4726 342.389 22.3749 338.35 29.3412L265.275 155.724L173.827 103.018L172.186 102.046Z" fill="#383838"></path><path d="M3.39009 8.62234C4.02114 7.70431 4.74234 6.80427 5.51762 5.99424C8.9974 2.35809 13.8835 0 19.6351 0H168.851V102.046L167.174 103.018L75.7442 155.724L2.65087 29.3412C-1.38784 22.3749 -0.55846 14.4726 3.39009 8.62234Z" fill="#383838"></path><circle cx="172.5" cy="112.5" r="64.5" fill="#FFC621"></circle></g><path d="M159.623 85.9115L163.377 87.5521C163.802 86.6771 164.257 85.8142 164.741 84.9635C165.225 84.1128 165.738 83.2986 166.281 82.5208L163.483 81.9375L159.623 85.9115ZM165.077 88.8646L169.787 93.7135C171.133 93.0816 172.397 92.3646 173.577 91.5625C174.758 90.7604 175.714 89.9826 176.446 89.2292C178.358 87.2604 179.763 85.2431 180.66 83.1771C181.558 81.1111 182.042 78.7778 182.112 76.1771C179.586 76.25 177.319 76.7483 175.312 77.6719C173.306 78.5955 171.346 80.0417 169.433 82.0104C168.701 82.7639 167.946 83.7483 167.167 84.9635C166.387 86.1788 165.691 87.4792 165.077 88.8646ZM173.187 85.3646C172.715 84.8785 172.479 84.2769 172.479 83.5599C172.479 82.8429 172.715 82.2413 173.187 81.7552C173.66 81.2691 174.244 81.026 174.941 81.026C175.637 81.026 176.222 81.2691 176.694 81.7552C177.166 82.2413 177.402 82.8429 177.402 83.5599C177.402 84.2769 177.166 84.8785 176.694 85.3646C176.222 85.8507 175.637 86.0937 174.941 86.0937C174.244 86.0937 173.66 85.8507 173.187 85.3646ZM172.656 99.3281L176.517 95.3542L175.95 92.474C175.194 93.033 174.403 93.5616 173.577 94.0599C172.751 94.5582 171.912 95.026 171.062 95.4635L172.656 99.3281ZM184.202 74.026C184.415 77.3316 184.013 80.3455 182.998 83.0677C181.983 85.7899 180.306 88.3542 177.969 90.7604L177.898 90.8333L177.827 90.9062L178.606 94.9167C178.677 95.2812 178.659 95.6337 178.553 95.974C178.447 96.3142 178.264 96.6181 178.004 96.8854L171.948 103.156L168.937 95.9375L162.917 89.7396L155.904 86.6406L161.996 80.4062C162.256 80.1389 162.551 79.9505 162.881 79.8411C163.212 79.7318 163.554 79.7135 163.908 79.7865L167.804 80.5885C167.828 80.5642 167.851 80.546 167.875 80.5339C167.899 80.5217 167.922 80.5035 167.946 80.4792C170.283 78.0729 172.774 76.3411 175.419 75.2839C178.063 74.2266 180.991 73.8073 184.202 74.026ZM158.277 94.151C159.103 93.3003 160.113 92.8689 161.305 92.8568C162.498 92.8446 163.507 93.2639 164.333 94.1146C165.16 94.9653 165.567 96.0043 165.555 97.2318C165.543 98.4592 165.124 99.4983 164.298 100.349C163.684 100.981 162.734 101.503 161.447 101.917C160.16 102.33 158.23 102.719 155.656 103.083C156.01 100.434 156.382 98.441 156.772 97.1042C157.161 95.7674 157.663 94.783 158.277 94.151ZM159.765 95.7187C159.434 96.0833 159.139 96.6545 158.879 97.4323C158.619 98.2101 158.395 99.2066 158.206 100.422C159.387 100.227 160.355 99.9965 161.11 99.7292C161.866 99.4618 162.421 99.158 162.775 98.8177C163.224 98.4045 163.454 97.888 163.466 97.2682C163.477 96.6484 163.271 96.1076 162.846 95.6458C162.397 95.2083 161.872 94.9957 161.27 95.0078C160.668 95.02 160.166 95.2569 159.765 95.7187Z" fill="black"></path><path d="M249.819 41L247.663 37.192H246.739V41H244.779V31.228H248.447C249.203 31.228 249.847 31.3633 250.379 31.634C250.911 31.8953 251.308 32.2547 251.569 32.712C251.84 33.16 251.975 33.664 251.975 34.224C251.975 34.868 251.789 35.4513 251.415 35.974C251.042 36.4873 250.487 36.842 249.749 37.038L252.087 41H249.819ZM246.739 35.722H248.377C248.909 35.722 249.306 35.596 249.567 35.344C249.829 35.0827 249.959 34.7233 249.959 34.266C249.959 33.818 249.829 33.4727 249.567 33.23C249.306 32.978 248.909 32.852 248.377 32.852H246.739V35.722ZM254.742 32.32C254.397 32.32 254.108 32.2127 253.874 31.998C253.65 31.774 253.538 31.4987 253.538 31.172C253.538 30.8453 253.65 30.5747 253.874 30.36C254.108 30.136 254.397 30.024 254.742 30.024C255.088 30.024 255.372 30.136 255.596 30.36C255.83 30.5747 255.946 30.8453 255.946 31.172C255.946 31.4987 255.83 31.774 255.596 31.998C255.372 32.2127 255.088 32.32 254.742 32.32ZM255.708 33.244V41H253.748V33.244H255.708ZM260.683 33.118C261.261 33.118 261.77 33.2347 262.209 33.468C262.647 33.692 262.993 33.986 263.245 34.35V33.244H265.219V41.056C265.219 41.7747 265.074 42.414 264.785 42.974C264.495 43.5433 264.061 43.9913 263.483 44.318C262.904 44.654 262.204 44.822 261.383 44.822C260.281 44.822 259.376 44.5653 258.667 44.052C257.967 43.5387 257.57 42.8387 257.477 41.952H259.423C259.525 42.3067 259.745 42.5867 260.081 42.792C260.426 43.0067 260.841 43.114 261.327 43.114C261.896 43.114 262.358 42.9413 262.713 42.596C263.067 42.26 263.245 41.7467 263.245 41.056V39.852C262.993 40.216 262.643 40.5193 262.195 40.762C261.756 41.0047 261.252 41.126 260.683 41.126C260.029 41.126 259.432 40.958 258.891 40.622C258.349 40.286 257.92 39.8147 257.603 39.208C257.295 38.592 257.141 37.8873 257.141 37.094C257.141 36.31 257.295 35.6147 257.603 35.008C257.92 34.4013 258.345 33.9347 258.877 33.608C259.418 33.2813 260.02 33.118 260.683 33.118ZM263.245 37.122C263.245 36.646 263.151 36.24 262.965 35.904C262.778 35.5587 262.526 35.2973 262.209 35.12C261.891 34.9333 261.551 34.84 261.187 34.84C260.823 34.84 260.487 34.9287 260.179 35.106C259.871 35.2833 259.619 35.5447 259.423 35.89C259.236 36.226 259.143 36.6273 259.143 37.094C259.143 37.5607 259.236 37.9713 259.423 38.326C259.619 38.6713 259.871 38.9373 260.179 39.124C260.496 39.3107 260.832 39.404 261.187 39.404C261.551 39.404 261.891 39.3153 262.209 39.138C262.526 38.9513 262.778 38.69 262.965 38.354C263.151 38.0087 263.245 37.598 263.245 37.122ZM271.501 33.132C272.089 33.132 272.612 33.2627 273.069 33.524C273.526 33.776 273.881 34.154 274.133 34.658C274.394 35.1527 274.525 35.75 274.525 36.45V41H272.565V36.716C272.565 36.1 272.411 35.6287 272.103 35.302C271.795 34.966 271.375 34.798 270.843 34.798C270.302 34.798 269.872 34.966 269.555 35.302C269.247 35.6287 269.093 36.1 269.093 36.716V41H267.133V30.64H269.093V34.21C269.345 33.874 269.681 33.6127 270.101 33.426C270.521 33.23 270.988 33.132 271.501 33.132ZM278.671 34.854V38.606C278.671 38.8673 278.732 39.0587 278.853 39.18C278.984 39.292 279.198 39.348 279.497 39.348H280.407V41H279.175C277.523 41 276.697 40.1973 276.697 38.592V34.854H275.773V33.244H276.697V31.326H278.671V33.244H280.407V34.854H278.671ZM237.77 62.098C237.088 62.098 236.472 61.9813 235.922 61.748C235.38 61.5147 234.951 61.1787 234.634 60.74C234.316 60.3013 234.153 59.7833 234.144 59.186H236.244C236.272 59.5873 236.412 59.9047 236.664 60.138C236.925 60.3713 237.28 60.488 237.728 60.488C238.185 60.488 238.544 60.3807 238.806 60.166C239.067 59.942 239.198 59.6527 239.198 59.298C239.198 59.0087 239.109 58.7707 238.932 58.584C238.754 58.3973 238.53 58.2527 238.26 58.15C237.998 58.038 237.634 57.9167 237.168 57.786C236.533 57.5993 236.015 57.4173 235.614 57.24C235.222 57.0533 234.881 56.778 234.592 56.414C234.312 56.0407 234.172 55.546 234.172 54.93C234.172 54.3513 234.316 53.8473 234.606 53.418C234.895 52.9887 235.301 52.662 235.824 52.438C236.346 52.2047 236.944 52.088 237.616 52.088C238.624 52.088 239.44 52.3353 240.066 52.83C240.7 53.3153 241.05 53.9967 241.116 54.874H238.96C238.941 54.538 238.796 54.2627 238.526 54.048C238.264 53.824 237.914 53.712 237.476 53.712C237.093 53.712 236.785 53.81 236.552 54.006C236.328 54.202 236.216 54.4867 236.216 54.86C236.216 55.1213 236.3 55.3407 236.468 55.518C236.645 55.686 236.86 55.826 237.112 55.938C237.373 56.0407 237.737 56.162 238.204 56.302C238.838 56.4887 239.356 56.6753 239.758 56.862C240.159 57.0487 240.504 57.3287 240.794 57.702C241.083 58.0753 241.228 58.5653 241.228 59.172C241.228 59.6947 241.092 60.18 240.822 60.628C240.551 61.076 240.154 61.4353 239.632 61.706C239.109 61.9673 238.488 62.098 237.77 62.098ZM245.209 55.854V59.606C245.209 59.8673 245.27 60.0587 245.391 60.18C245.522 60.292 245.736 60.348 246.035 60.348H246.945V62H245.713C244.061 62 243.235 61.1973 243.235 59.592V55.854H242.311V54.244H243.235V52.326H245.209V54.244H246.945V55.854H245.209ZM250.315 55.448C250.567 55.0373 250.893 54.7153 251.295 54.482C251.705 54.2487 252.172 54.132 252.695 54.132V56.19H252.177C251.561 56.19 251.094 56.3347 250.777 56.624C250.469 56.9133 250.315 57.4173 250.315 58.136V62H248.355V54.244H250.315V55.448ZM253.511 58.094C253.511 57.31 253.665 56.6147 253.973 56.008C254.29 55.4013 254.715 54.9347 255.247 54.608C255.788 54.2813 256.39 54.118 257.053 54.118C257.631 54.118 258.135 54.2347 258.565 54.468C259.003 54.7013 259.353 54.9953 259.615 55.35V54.244H261.589V62H259.615V60.866C259.363 61.23 259.013 61.5333 258.565 61.776C258.126 62.0093 257.617 62.126 257.039 62.126C256.385 62.126 255.788 61.958 255.247 61.622C254.715 61.286 254.29 60.8147 253.973 60.208C253.665 59.592 253.511 58.8873 253.511 58.094ZM259.615 58.122C259.615 57.646 259.521 57.24 259.335 56.904C259.148 56.5587 258.896 56.2973 258.579 56.12C258.261 55.9333 257.921 55.84 257.557 55.84C257.193 55.84 256.857 55.9287 256.549 56.106C256.241 56.2833 255.989 56.5447 255.793 56.89C255.606 57.226 255.513 57.6273 255.513 58.094C255.513 58.5607 255.606 58.9713 255.793 59.326C255.989 59.6713 256.241 59.9373 256.549 60.124C256.866 60.3107 257.202 60.404 257.557 60.404C257.921 60.404 258.261 60.3153 258.579 60.138C258.896 59.9513 259.148 59.69 259.335 59.354C259.521 59.0087 259.615 58.598 259.615 58.122ZM265.785 55.854V59.606C265.785 59.8673 265.846 60.0587 265.967 60.18C266.098 60.292 266.312 60.348 266.611 60.348H267.521V62H266.289C264.637 62 263.811 61.1973 263.811 59.592V55.854H262.887V54.244H263.811V52.326H265.785V54.244H267.521V55.854H265.785ZM276.141 57.954C276.141 58.234 276.122 58.486 276.085 58.71H270.415C270.462 59.27 270.658 59.7087 271.003 60.026C271.348 60.3433 271.773 60.502 272.277 60.502C273.005 60.502 273.523 60.1893 273.831 59.564H275.945C275.721 60.3107 275.292 60.9267 274.657 61.412C274.022 61.888 273.243 62.126 272.319 62.126C271.572 62.126 270.9 61.9627 270.303 61.636C269.715 61.3 269.253 60.8287 268.917 60.222C268.59 59.6153 268.427 58.9153 268.427 58.122C268.427 57.3193 268.59 56.6147 268.917 56.008C269.244 55.4013 269.701 54.9347 270.289 54.608C270.877 54.2813 271.554 54.118 272.319 54.118C273.056 54.118 273.714 54.2767 274.293 54.594C274.881 54.9113 275.334 55.364 275.651 55.952C275.978 56.5307 276.141 57.198 276.141 57.954ZM274.111 57.394C274.102 56.89 273.92 56.4887 273.565 56.19C273.21 55.882 272.776 55.728 272.263 55.728C271.778 55.728 271.367 55.8773 271.031 56.176C270.704 56.4653 270.504 56.8713 270.429 57.394H274.111ZM280.609 54.118C281.188 54.118 281.697 54.2347 282.135 54.468C282.574 54.692 282.919 54.986 283.171 55.35V54.244H285.145V62.056C285.145 62.7747 285.001 63.414 284.711 63.974C284.422 64.5433 283.988 64.9913 283.409 65.318C282.831 65.654 282.131 65.822 281.309 65.822C280.208 65.822 279.303 65.5653 278.593 65.052C277.893 64.5387 277.497 63.8387 277.403 62.952H279.349C279.452 63.3067 279.671 63.5867 280.007 63.792C280.353 64.0067 280.768 64.114 281.253 64.114C281.823 64.114 282.285 63.9413 282.639 63.596C282.994 63.26 283.171 62.7467 283.171 62.056V60.852C282.919 61.216 282.569 61.5193 282.121 61.762C281.683 62.0047 281.179 62.126 280.609 62.126C279.956 62.126 279.359 61.958 278.817 61.622C278.276 61.286 277.847 60.8147 277.529 60.208C277.221 59.592 277.067 58.8873 277.067 58.094C277.067 57.31 277.221 56.6147 277.529 56.008C277.847 55.4013 278.271 54.9347 278.803 54.608C279.345 54.2813 279.947 54.118 280.609 54.118ZM283.171 58.122C283.171 57.646 283.078 57.24 282.891 56.904C282.705 56.5587 282.453 56.2973 282.135 56.12C281.818 55.9333 281.477 55.84 281.113 55.84C280.749 55.84 280.413 55.9287 280.105 56.106C279.797 56.2833 279.545 56.5447 279.349 56.89C279.163 57.226 279.069 57.6273 279.069 58.094C279.069 58.5607 279.163 58.9713 279.349 59.326C279.545 59.6713 279.797 59.9373 280.105 60.124C280.423 60.3107 280.759 60.404 281.113 60.404C281.477 60.404 281.818 60.3153 282.135 60.138C282.453 59.9513 282.705 59.69 282.891 59.354C283.078 59.0087 283.171 58.598 283.171 58.122ZM294.48 54.244L289.678 65.668H287.592L289.272 61.804L286.164 54.244H288.362L290.364 59.662L292.394 54.244H294.48Z" fill="white"></path><path d="M116.143 200L113.987 196.192H113.063V200H111.103V190.228H114.771C115.527 190.228 116.171 190.363 116.703 190.634C117.235 190.895 117.631 191.255 117.893 191.712C118.163 192.16 118.299 192.664 118.299 193.224C118.299 193.868 118.112 194.451 117.739 194.974C117.365 195.487 116.81 195.842 116.073 196.038L118.411 200H116.143ZM113.063 194.722H114.701C115.233 194.722 115.629 194.596 115.891 194.344C116.152 194.083 116.283 193.723 116.283 193.266C116.283 192.818 116.152 192.473 115.891 192.23C115.629 191.978 115.233 191.852 114.701 191.852H113.063V194.722ZM121.065 191.32C120.72 191.32 120.431 191.213 120.197 190.998C119.973 190.774 119.861 190.499 119.861 190.172C119.861 189.845 119.973 189.575 120.197 189.36C120.431 189.136 120.72 189.024 121.065 189.024C121.411 189.024 121.695 189.136 121.919 189.36C122.153 189.575 122.269 189.845 122.269 190.172C122.269 190.499 122.153 190.774 121.919 190.998C121.695 191.213 121.411 191.32 121.065 191.32ZM122.031 192.244V200H120.071V192.244H122.031ZM127.006 192.118C127.585 192.118 128.093 192.235 128.532 192.468C128.971 192.692 129.316 192.986 129.568 193.35V192.244H131.542V200.056C131.542 200.775 131.397 201.414 131.108 201.974C130.819 202.543 130.385 202.991 129.806 203.318C129.227 203.654 128.527 203.822 127.706 203.822C126.605 203.822 125.699 203.565 124.99 203.052C124.29 202.539 123.893 201.839 123.8 200.952H125.746C125.849 201.307 126.068 201.587 126.404 201.792C126.749 202.007 127.165 202.114 127.65 202.114C128.219 202.114 128.681 201.941 129.036 201.596C129.391 201.26 129.568 200.747 129.568 200.056V198.852C129.316 199.216 128.966 199.519 128.518 199.762C128.079 200.005 127.575 200.126 127.006 200.126C126.353 200.126 125.755 199.958 125.214 199.622C124.673 199.286 124.243 198.815 123.926 198.208C123.618 197.592 123.464 196.887 123.464 196.094C123.464 195.31 123.618 194.615 123.926 194.008C124.243 193.401 124.668 192.935 125.2 192.608C125.741 192.281 126.343 192.118 127.006 192.118ZM129.568 196.122C129.568 195.646 129.475 195.24 129.288 194.904C129.101 194.559 128.849 194.297 128.532 194.12C128.215 193.933 127.874 193.84 127.51 193.84C127.146 193.84 126.81 193.929 126.502 194.106C126.194 194.283 125.942 194.545 125.746 194.89C125.559 195.226 125.466 195.627 125.466 196.094C125.466 196.561 125.559 196.971 125.746 197.326C125.942 197.671 126.194 197.937 126.502 198.124C126.819 198.311 127.155 198.404 127.51 198.404C127.874 198.404 128.215 198.315 128.532 198.138C128.849 197.951 129.101 197.69 129.288 197.354C129.475 197.009 129.568 196.598 129.568 196.122ZM137.824 192.132C138.412 192.132 138.935 192.263 139.392 192.524C139.85 192.776 140.204 193.154 140.456 193.658C140.718 194.153 140.848 194.75 140.848 195.45V200H138.888V195.716C138.888 195.1 138.734 194.629 138.426 194.302C138.118 193.966 137.698 193.798 137.166 193.798C136.625 193.798 136.196 193.966 135.878 194.302C135.57 194.629 135.416 195.1 135.416 195.716V200H133.456V189.64H135.416V193.21C135.668 192.874 136.004 192.613 136.424 192.426C136.844 192.23 137.311 192.132 137.824 192.132ZM144.994 193.854V197.606C144.994 197.867 145.055 198.059 145.176 198.18C145.307 198.292 145.521 198.348 145.82 198.348H146.73V200H145.498C143.846 200 143.02 199.197 143.02 197.592V193.854H142.096V192.244H143.02V190.326H144.994V192.244H146.73V193.854H144.994ZM158.602 193.252C158.602 193.775 158.476 194.265 158.224 194.722C157.981 195.179 157.594 195.548 157.062 195.828C156.539 196.108 155.876 196.248 155.074 196.248H153.436V200H151.476V190.228H155.074C155.83 190.228 156.474 190.359 157.006 190.62C157.538 190.881 157.934 191.241 158.196 191.698C158.466 192.155 158.602 192.673 158.602 193.252ZM154.99 194.666C155.531 194.666 155.932 194.545 156.194 194.302C156.455 194.05 156.586 193.7 156.586 193.252C156.586 192.3 156.054 191.824 154.99 191.824H153.436V194.666H154.99ZM162.961 200.126C162.327 200.126 161.757 200.014 161.253 199.79C160.749 199.557 160.348 199.244 160.049 198.852C159.76 198.46 159.601 198.026 159.573 197.55H161.547C161.585 197.849 161.729 198.096 161.981 198.292C162.243 198.488 162.565 198.586 162.947 198.586C163.321 198.586 163.61 198.511 163.815 198.362C164.03 198.213 164.137 198.021 164.137 197.788C164.137 197.536 164.007 197.349 163.745 197.228C163.493 197.097 163.087 196.957 162.527 196.808C161.949 196.668 161.473 196.523 161.099 196.374C160.735 196.225 160.418 195.996 160.147 195.688C159.886 195.38 159.755 194.965 159.755 194.442C159.755 194.013 159.877 193.621 160.119 193.266C160.371 192.911 160.726 192.631 161.183 192.426C161.65 192.221 162.196 192.118 162.821 192.118C163.745 192.118 164.483 192.351 165.033 192.818C165.584 193.275 165.887 193.896 165.943 194.68H164.067C164.039 194.372 163.909 194.129 163.675 193.952C163.451 193.765 163.148 193.672 162.765 193.672C162.411 193.672 162.135 193.737 161.939 193.868C161.753 193.999 161.659 194.181 161.659 194.414C161.659 194.675 161.79 194.876 162.051 195.016C162.313 195.147 162.719 195.282 163.269 195.422C163.829 195.562 164.291 195.707 164.655 195.856C165.019 196.005 165.332 196.239 165.593 196.556C165.864 196.864 166.004 197.275 166.013 197.788C166.013 198.236 165.887 198.637 165.635 198.992C165.393 199.347 165.038 199.627 164.571 199.832C164.114 200.028 163.577 200.126 162.961 200.126ZM175.042 192.244L170.24 203.668H168.154L169.834 199.804L166.726 192.244H168.924L170.926 197.662L172.956 192.244H175.042ZM175.595 196.122C175.595 195.319 175.758 194.619 176.085 194.022C176.411 193.415 176.864 192.949 177.443 192.622C178.021 192.286 178.684 192.118 179.431 192.118C180.392 192.118 181.185 192.361 181.811 192.846C182.445 193.322 182.87 193.994 183.085 194.862H180.971C180.859 194.526 180.667 194.265 180.397 194.078C180.135 193.882 179.809 193.784 179.417 193.784C178.857 193.784 178.413 193.989 178.087 194.4C177.76 194.801 177.597 195.375 177.597 196.122C177.597 196.859 177.76 197.433 178.087 197.844C178.413 198.245 178.857 198.446 179.417 198.446C180.21 198.446 180.728 198.091 180.971 197.382H183.085C182.87 198.222 182.445 198.889 181.811 199.384C181.176 199.879 180.383 200.126 179.431 200.126C178.684 200.126 178.021 199.963 177.443 199.636C176.864 199.3 176.411 198.833 176.085 198.236C175.758 197.629 175.595 196.925 175.595 196.122ZM188.889 192.132C189.477 192.132 189.999 192.263 190.457 192.524C190.914 192.776 191.269 193.154 191.521 193.658C191.782 194.153 191.913 194.75 191.913 195.45V200H189.953V195.716C189.953 195.1 189.799 194.629 189.491 194.302C189.183 193.966 188.763 193.798 188.231 193.798C187.689 193.798 187.26 193.966 186.943 194.302C186.635 194.629 186.481 195.1 186.481 195.716V200H184.521V189.64H186.481V193.21C186.733 192.874 187.069 192.613 187.489 192.426C187.909 192.23 188.375 192.132 188.889 192.132ZM197.221 200.126C196.474 200.126 195.802 199.963 195.205 199.636C194.607 199.3 194.136 198.829 193.791 198.222C193.455 197.615 193.287 196.915 193.287 196.122C193.287 195.329 193.459 194.629 193.805 194.022C194.159 193.415 194.64 192.949 195.247 192.622C195.853 192.286 196.53 192.118 197.277 192.118C198.023 192.118 198.7 192.286 199.307 192.622C199.913 192.949 200.389 193.415 200.735 194.022C201.089 194.629 201.267 195.329 201.267 196.122C201.267 196.915 201.085 197.615 200.721 198.222C200.366 198.829 199.881 199.3 199.265 199.636C198.658 199.963 197.977 200.126 197.221 200.126ZM197.221 198.418C197.575 198.418 197.907 198.334 198.215 198.166C198.532 197.989 198.784 197.727 198.971 197.382C199.157 197.037 199.251 196.617 199.251 196.122C199.251 195.385 199.055 194.82 198.663 194.428C198.28 194.027 197.809 193.826 197.249 193.826C196.689 193.826 196.217 194.027 195.835 194.428C195.461 194.82 195.275 195.385 195.275 196.122C195.275 196.859 195.457 197.429 195.821 197.83C196.194 198.222 196.661 198.418 197.221 198.418ZM204.664 189.64V200H202.704V189.64H204.664ZM210.045 200.126C209.298 200.126 208.626 199.963 208.029 199.636C207.431 199.3 206.96 198.829 206.615 198.222C206.279 197.615 206.111 196.915 206.111 196.122C206.111 195.329 206.283 194.629 206.629 194.022C206.983 193.415 207.464 192.949 208.071 192.622C208.677 192.286 209.354 192.118 210.101 192.118C210.847 192.118 211.524 192.286 212.131 192.622C212.737 192.949 213.213 193.415 213.559 194.022C213.913 194.629 214.091 195.329 214.091 196.122C214.091 196.915 213.909 197.615 213.545 198.222C213.19 198.829 212.705 199.3 212.089 199.636C211.482 199.963 210.801 200.126 210.045 200.126ZM210.045 198.418C210.399 198.418 210.731 198.334 211.039 198.166C211.356 197.989 211.608 197.727 211.795 197.382C211.981 197.037 212.075 196.617 212.075 196.122C212.075 195.385 211.879 194.82 211.487 194.428C211.104 194.027 210.633 193.826 210.073 193.826C209.513 193.826 209.041 194.027 208.659 194.428C208.285 194.82 208.099 195.385 208.099 196.122C208.099 196.859 208.281 197.429 208.645 197.83C209.018 198.222 209.485 198.418 210.045 198.418ZM218.567 192.118C219.145 192.118 219.654 192.235 220.093 192.468C220.531 192.692 220.877 192.986 221.129 193.35V192.244H223.103V200.056C223.103 200.775 222.958 201.414 222.669 201.974C222.379 202.543 221.945 202.991 221.367 203.318C220.788 203.654 220.088 203.822 219.267 203.822C218.165 203.822 217.26 203.565 216.551 203.052C215.851 202.539 215.454 201.839 215.361 200.952H217.307C217.409 201.307 217.629 201.587 217.965 201.792C218.31 202.007 218.725 202.114 219.211 202.114C219.78 202.114 220.242 201.941 220.597 201.596C220.951 201.26 221.129 200.747 221.129 200.056V198.852C220.877 199.216 220.527 199.519 220.079 199.762C219.64 200.005 219.136 200.126 218.567 200.126C217.913 200.126 217.316 199.958 216.775 199.622C216.233 199.286 215.804 198.815 215.486 198.208C215.178 197.592 215.024 196.887 215.024 196.094C215.024 195.31 215.178 194.615 215.486 194.008C215.804 193.401 216.229 192.935 216.761 192.608C217.302 192.281 217.904 192.118 218.567 192.118ZM221.129 196.122C221.129 195.646 221.035 195.24 220.849 194.904C220.662 194.559 220.41 194.297 220.093 194.12C219.775 193.933 219.435 193.84 219.071 193.84C218.707 193.84 218.371 193.929 218.062 194.106C217.755 194.283 217.503 194.545 217.307 194.89C217.12 195.226 217.027 195.627 217.027 196.094C217.027 196.561 217.12 196.971 217.307 197.326C217.503 197.671 217.755 197.937 218.062 198.124C218.38 198.311 218.716 198.404 219.071 198.404C219.435 198.404 219.775 198.315 220.093 198.138C220.41 197.951 220.662 197.69 220.849 197.354C221.035 197.009 221.129 196.598 221.129 196.122ZM232.437 192.244L227.635 203.668H225.549L227.229 199.804L224.121 192.244H226.319L228.321 197.662L230.351 192.244H232.437ZM127.501 221.126C126.754 221.126 126.082 220.963 125.485 220.636C124.887 220.3 124.416 219.829 124.071 219.222C123.735 218.615 123.567 217.915 123.567 217.122C123.567 216.329 123.739 215.629 124.085 215.022C124.439 214.415 124.92 213.949 125.527 213.622C126.133 213.286 126.81 213.118 127.557 213.118C128.303 213.118 128.98 213.286 129.587 213.622C130.193 213.949 130.669 214.415 131.015 215.022C131.369 215.629 131.547 216.329 131.547 217.122C131.547 217.915 131.365 218.615 131.001 219.222C130.646 219.829 130.161 220.3 129.545 220.636C128.938 220.963 128.257 221.126 127.501 221.126ZM127.501 219.418C127.855 219.418 128.187 219.334 128.495 219.166C128.812 218.989 129.064 218.727 129.251 218.382C129.437 218.037 129.531 217.617 129.531 217.122C129.531 216.385 129.335 215.82 128.943 215.428C128.56 215.027 128.089 214.826 127.529 214.826C126.969 214.826 126.497 215.027 126.115 215.428C125.741 215.82 125.555 216.385 125.555 217.122C125.555 217.859 125.737 218.429 126.101 218.83C126.474 219.222 126.941 219.418 127.501 219.418ZM136.541 214.854H135.183V221H133.195V214.854H132.313V213.244H133.195V212.852C133.195 211.9 133.465 211.2 134.007 210.752C134.548 210.304 135.365 210.094 136.457 210.122V211.774C135.981 211.765 135.649 211.844 135.463 212.012C135.276 212.18 135.183 212.483 135.183 212.922V213.244H136.541V214.854ZM143.107 214.448C143.359 214.037 143.685 213.715 144.087 213.482C144.497 213.249 144.964 213.132 145.487 213.132V215.19H144.969C144.353 215.19 143.886 215.335 143.569 215.624C143.261 215.913 143.107 216.417 143.107 217.136V221H141.147V213.244H143.107V214.448ZM154.129 213.244V221H152.155V220.02C151.903 220.356 151.571 220.622 151.161 220.818C150.759 221.005 150.321 221.098 149.845 221.098C149.238 221.098 148.701 220.972 148.235 220.72C147.768 220.459 147.399 220.081 147.129 219.586C146.867 219.082 146.737 218.485 146.737 217.794V213.244H148.697V217.514C148.697 218.13 148.851 218.606 149.159 218.942C149.467 219.269 149.887 219.432 150.419 219.432C150.96 219.432 151.385 219.269 151.693 218.942C152.001 218.606 152.155 218.13 152.155 217.514V213.244H154.129ZM160.361 213.132C161.285 213.132 162.031 213.426 162.601 214.014C163.17 214.593 163.455 215.405 163.455 216.45V221H161.495V216.716C161.495 216.1 161.341 215.629 161.033 215.302C160.725 214.966 160.305 214.798 159.773 214.798C159.231 214.798 158.802 214.966 158.485 215.302C158.177 215.629 158.023 216.1 158.023 216.716V221H156.063V213.244H158.023V214.21C158.284 213.874 158.615 213.613 159.017 213.426C159.427 213.23 159.875 213.132 160.361 213.132ZM169.617 213.132C170.541 213.132 171.287 213.426 171.857 214.014C172.426 214.593 172.711 215.405 172.711 216.45V221H170.751V216.716C170.751 216.1 170.597 215.629 170.289 215.302C169.981 214.966 169.561 214.798 169.029 214.798C168.487 214.798 168.058 214.966 167.741 215.302C167.433 215.629 167.279 216.1 167.279 216.716V221H165.319V213.244H167.279V214.21C167.54 213.874 167.871 213.613 168.273 213.426C168.683 213.23 169.131 213.132 169.617 213.132ZM175.568 212.32C175.223 212.32 174.934 212.213 174.7 211.998C174.476 211.774 174.364 211.499 174.364 211.172C174.364 210.845 174.476 210.575 174.7 210.36C174.934 210.136 175.223 210.024 175.568 210.024C175.914 210.024 176.198 210.136 176.422 210.36C176.656 210.575 176.772 210.845 176.772 211.172C176.772 211.499 176.656 211.774 176.422 211.998C176.198 212.213 175.914 212.32 175.568 212.32ZM176.534 213.244V221H174.574V213.244H176.534ZM182.769 213.132C183.693 213.132 184.44 213.426 185.009 214.014C185.578 214.593 185.863 215.405 185.863 216.45V221H183.903V216.716C183.903 216.1 183.749 215.629 183.441 215.302C183.133 214.966 182.713 214.798 182.181 214.798C181.64 214.798 181.21 214.966 180.893 215.302C180.585 215.629 180.431 216.1 180.431 216.716V221H178.471V213.244H180.431V214.21C180.692 213.874 181.024 213.613 181.425 213.426C181.836 213.23 182.284 213.132 182.769 213.132ZM190.765 213.118C191.343 213.118 191.852 213.235 192.291 213.468C192.729 213.692 193.075 213.986 193.327 214.35V213.244H195.301V221.056C195.301 221.775 195.156 222.414 194.867 222.974C194.577 223.543 194.143 223.991 193.565 224.318C192.986 224.654 192.286 224.822 191.465 224.822C190.363 224.822 189.458 224.565 188.749 224.052C188.049 223.539 187.652 222.839 187.559 221.952H189.505C189.607 222.307 189.827 222.587 190.163 222.792C190.508 223.007 190.923 223.114 191.409 223.114C191.978 223.114 192.44 222.941 192.795 222.596C193.149 222.26 193.327 221.747 193.327 221.056V219.852C193.075 220.216 192.725 220.519 192.277 220.762C191.838 221.005 191.334 221.126 190.765 221.126C190.111 221.126 189.514 220.958 188.973 220.622C188.431 220.286 188.002 219.815 187.685 219.208C187.377 218.592 187.223 217.887 187.223 217.094C187.223 216.31 187.377 215.615 187.685 215.008C188.002 214.401 188.427 213.935 188.959 213.608C189.5 213.281 190.102 213.118 190.765 213.118ZM193.327 217.122C193.327 216.646 193.233 216.24 193.047 215.904C192.86 215.559 192.608 215.297 192.291 215.12C191.973 214.933 191.633 214.84 191.269 214.84C190.905 214.84 190.569 214.929 190.261 215.106C189.953 215.283 189.701 215.545 189.505 215.89C189.318 216.226 189.225 216.627 189.225 217.094C189.225 217.561 189.318 217.971 189.505 218.326C189.701 218.671 189.953 218.937 190.261 219.124C190.578 219.311 190.914 219.404 191.269 219.404C191.633 219.404 191.973 219.315 192.291 219.138C192.608 218.951 192.86 218.69 193.047 218.354C193.233 218.009 193.327 217.598 193.327 217.122ZM202.833 214.854V218.606C202.833 218.867 202.894 219.059 203.015 219.18C203.146 219.292 203.36 219.348 203.659 219.348H204.569V221H203.337C201.685 221 200.859 220.197 200.859 218.592V214.854H199.935V213.244H200.859V211.326H202.833V213.244H204.569V214.854H202.833ZM210.347 213.132C210.935 213.132 211.457 213.263 211.915 213.524C212.372 213.776 212.727 214.154 212.979 214.658C213.24 215.153 213.371 215.75 213.371 216.45V221H211.411V216.716C211.411 216.1 211.257 215.629 210.949 215.302C210.641 214.966 210.221 214.798 209.689 214.798C209.147 214.798 208.718 214.966 208.401 215.302C208.093 215.629 207.939 216.1 207.939 216.716V221H205.979V210.64H207.939V214.21C208.191 213.874 208.527 213.613 208.947 213.426C209.367 213.23 209.833 213.132 210.347 213.132ZM222.445 216.954C222.445 217.234 222.426 217.486 222.389 217.71H216.719C216.765 218.27 216.961 218.709 217.307 219.026C217.652 219.343 218.077 219.502 218.581 219.502C219.309 219.502 219.827 219.189 220.135 218.564H222.249C222.025 219.311 221.595 219.927 220.961 220.412C220.326 220.888 219.547 221.126 218.623 221.126C217.876 221.126 217.204 220.963 216.607 220.636C216.019 220.3 215.557 219.829 215.221 219.222C214.894 218.615 214.731 217.915 214.731 217.122C214.731 216.319 214.894 215.615 215.221 215.008C215.547 214.401 216.005 213.935 216.593 213.608C217.181 213.281 217.857 213.118 218.623 213.118C219.36 213.118 220.018 213.277 220.597 213.594C221.185 213.911 221.637 214.364 221.955 214.952C222.281 215.531 222.445 216.198 222.445 216.954ZM220.415 216.394C220.405 215.89 220.223 215.489 219.869 215.19C219.514 214.882 219.08 214.728 218.567 214.728C218.081 214.728 217.671 214.877 217.335 215.176C217.008 215.465 216.807 215.871 216.733 216.394H220.415ZM144.214 235.378C144.466 235.005 144.811 234.701 145.25 234.468C145.698 234.235 146.207 234.118 146.776 234.118C147.439 234.118 148.036 234.281 148.568 234.608C149.109 234.935 149.534 235.401 149.842 236.008C150.159 236.605 150.318 237.301 150.318 238.094C150.318 238.887 150.159 239.592 149.842 240.208C149.534 240.815 149.109 241.286 148.568 241.622C148.036 241.958 147.439 242.126 146.776 242.126C146.197 242.126 145.689 242.014 145.25 241.79C144.821 241.557 144.475 241.258 144.214 240.894V242H142.254V231.64H144.214V235.378ZM148.316 238.094C148.316 237.627 148.218 237.226 148.022 236.89C147.835 236.545 147.583 236.283 147.266 236.106C146.958 235.929 146.622 235.84 146.258 235.84C145.903 235.84 145.567 235.933 145.25 236.12C144.942 236.297 144.69 236.559 144.494 236.904C144.307 237.249 144.214 237.655 144.214 238.122C144.214 238.589 144.307 238.995 144.494 239.34C144.69 239.685 144.942 239.951 145.25 240.138C145.567 240.315 145.903 240.404 146.258 240.404C146.622 240.404 146.958 240.311 147.266 240.124C147.583 239.937 147.835 239.671 148.022 239.326C148.218 238.981 148.316 238.57 148.316 238.094ZM159.064 234.244V242H157.09V241.02C156.838 241.356 156.507 241.622 156.096 241.818C155.695 242.005 155.256 242.098 154.78 242.098C154.174 242.098 153.637 241.972 153.17 241.72C152.704 241.459 152.335 241.081 152.064 240.586C151.803 240.082 151.672 239.485 151.672 238.794V234.244H153.632V238.514C153.632 239.13 153.786 239.606 154.094 239.942C154.402 240.269 154.822 240.432 155.354 240.432C155.896 240.432 156.32 240.269 156.628 239.942C156.936 239.606 157.09 239.13 157.09 238.514V234.244H159.064ZM163.966 242.126C163.332 242.126 162.762 242.014 162.258 241.79C161.754 241.557 161.353 241.244 161.054 240.852C160.765 240.46 160.606 240.026 160.578 239.55H162.552C162.59 239.849 162.734 240.096 162.986 240.292C163.248 240.488 163.57 240.586 163.952 240.586C164.326 240.586 164.615 240.511 164.82 240.362C165.035 240.213 165.142 240.021 165.142 239.788C165.142 239.536 165.012 239.349 164.75 239.228C164.498 239.097 164.092 238.957 163.532 238.808C162.954 238.668 162.478 238.523 162.104 238.374C161.74 238.225 161.423 237.996 161.152 237.688C160.891 237.38 160.76 236.965 160.76 236.442C160.76 236.013 160.882 235.621 161.124 235.266C161.376 234.911 161.731 234.631 162.188 234.426C162.655 234.221 163.201 234.118 163.826 234.118C164.75 234.118 165.488 234.351 166.038 234.818C166.589 235.275 166.892 235.896 166.948 236.68H165.072C165.044 236.372 164.914 236.129 164.68 235.952C164.456 235.765 164.153 235.672 163.77 235.672C163.416 235.672 163.14 235.737 162.944 235.868C162.758 235.999 162.664 236.181 162.664 236.414C162.664 236.675 162.795 236.876 163.056 237.016C163.318 237.147 163.724 237.282 164.274 237.422C164.834 237.562 165.296 237.707 165.66 237.856C166.024 238.005 166.337 238.239 166.598 238.556C166.869 238.864 167.009 239.275 167.018 239.788C167.018 240.236 166.892 240.637 166.64 240.992C166.398 241.347 166.043 241.627 165.576 241.832C165.119 242.028 164.582 242.126 163.966 242.126ZM169.621 233.32C169.276 233.32 168.986 233.213 168.753 232.998C168.529 232.774 168.417 232.499 168.417 232.172C168.417 231.845 168.529 231.575 168.753 231.36C168.986 231.136 169.276 231.024 169.621 231.024C169.966 231.024 170.251 231.136 170.475 231.36C170.708 231.575 170.825 231.845 170.825 232.172C170.825 232.499 170.708 232.774 170.475 232.998C170.251 233.213 169.966 233.32 169.621 233.32ZM170.587 234.244V242H168.627V234.244H170.587ZM176.822 234.132C177.746 234.132 178.492 234.426 179.062 235.014C179.631 235.593 179.916 236.405 179.916 237.45V242H177.956V237.716C177.956 237.1 177.802 236.629 177.494 236.302C177.186 235.966 176.766 235.798 176.234 235.798C175.692 235.798 175.263 235.966 174.946 236.302C174.638 236.629 174.484 237.1 174.484 237.716V242H172.524V234.244H174.484V235.21C174.745 234.874 175.076 234.613 175.478 234.426C175.888 234.23 176.336 234.132 176.822 234.132ZM188.989 237.954C188.989 238.234 188.971 238.486 188.933 238.71H183.263C183.31 239.27 183.506 239.709 183.851 240.026C184.197 240.343 184.621 240.502 185.125 240.502C185.853 240.502 186.371 240.189 186.679 239.564H188.793C188.569 240.311 188.14 240.927 187.505 241.412C186.871 241.888 186.091 242.126 185.167 242.126C184.421 242.126 183.749 241.963 183.151 241.636C182.563 241.3 182.101 240.829 181.765 240.222C181.439 239.615 181.275 238.915 181.275 238.122C181.275 237.319 181.439 236.615 181.765 236.008C182.092 235.401 182.549 234.935 183.137 234.608C183.725 234.281 184.402 234.118 185.167 234.118C185.905 234.118 186.563 234.277 187.141 234.594C187.729 234.911 188.182 235.364 188.499 235.952C188.826 236.531 188.989 237.198 188.989 237.954ZM186.959 237.394C186.95 236.89 186.768 236.489 186.413 236.19C186.059 235.882 185.625 235.728 185.111 235.728C184.626 235.728 184.215 235.877 183.879 236.176C183.553 236.465 183.352 236.871 183.277 237.394H186.959ZM193.388 242.126C192.753 242.126 192.184 242.014 191.68 241.79C191.176 241.557 190.775 241.244 190.476 240.852C190.187 240.46 190.028 240.026 190 239.55H191.974C192.011 239.849 192.156 240.096 192.408 240.292C192.669 240.488 192.991 240.586 193.374 240.586C193.747 240.586 194.037 240.511 194.242 240.362C194.457 240.213 194.564 240.021 194.564 239.788C194.564 239.536 194.433 239.349 194.172 239.228C193.92 239.097 193.514 238.957 192.954 238.808C192.375 238.668 191.899 238.523 191.526 238.374C191.162 238.225 190.845 237.996 190.574 237.688C190.313 237.38 190.182 236.965 190.182 236.442C190.182 236.013 190.303 235.621 190.546 235.266C190.798 234.911 191.153 234.631 191.61 234.426C192.077 234.221 192.623 234.118 193.248 234.118C194.172 234.118 194.909 234.351 195.46 234.818C196.011 235.275 196.314 235.896 196.37 236.68H194.494C194.466 236.372 194.335 236.129 194.102 235.952C193.878 235.765 193.575 235.672 193.192 235.672C192.837 235.672 192.562 235.737 192.366 235.868C192.179 235.999 192.086 236.181 192.086 236.414C192.086 236.675 192.217 236.876 192.478 237.016C192.739 237.147 193.145 237.282 193.696 237.422C194.256 237.562 194.718 237.707 195.082 237.856C195.446 238.005 195.759 238.239 196.02 238.556C196.291 238.864 196.431 239.275 196.44 239.788C196.44 240.236 196.314 240.637 196.062 240.992C195.819 241.347 195.465 241.627 194.998 241.832C194.541 242.028 194.004 242.126 193.388 242.126ZM201.017 242.126C200.382 242.126 199.813 242.014 199.309 241.79C198.805 241.557 198.404 241.244 198.105 240.852C197.816 240.46 197.657 240.026 197.629 239.55H199.603C199.64 239.849 199.785 240.096 200.037 240.292C200.298 240.488 200.62 240.586 201.003 240.586C201.376 240.586 201.666 240.511 201.871 240.362C202.086 240.213 202.193 240.021 202.193 239.788C202.193 239.536 202.062 239.349 201.801 239.228C201.549 239.097 201.143 238.957 200.583 238.808C200.004 238.668 199.528 238.523 199.155 238.374C198.791 238.225 198.474 237.996 198.203 237.688C197.942 237.38 197.811 236.965 197.811 236.442C197.811 236.013 197.932 235.621 198.175 235.266C198.427 234.911 198.782 234.631 199.239 234.426C199.706 234.221 200.252 234.118 200.877 234.118C201.801 234.118 202.538 234.351 203.089 234.818C203.64 235.275 203.943 235.896 203.999 236.68H202.123C202.095 236.372 201.964 236.129 201.731 235.952C201.507 235.765 201.204 235.672 200.821 235.672C200.466 235.672 200.191 235.737 199.995 235.868C199.808 235.999 199.715 236.181 199.715 236.414C199.715 236.675 199.846 236.876 200.107 237.016C200.368 237.147 200.774 237.282 201.325 237.422C201.885 237.562 202.347 237.707 202.711 237.856C203.075 238.005 203.388 238.239 203.649 238.556C203.92 238.864 204.06 239.275 204.069 239.788C204.069 240.236 203.943 240.637 203.691 240.992C203.448 241.347 203.094 241.627 202.627 241.832C202.17 242.028 201.633 242.126 201.017 242.126Z" fill="white"></path><path d="M148.645 118.32C149.174 118.433 149.598 118.697 149.919 119.113C150.24 119.52 150.4 119.988 150.4 120.517C150.4 121.28 150.131 121.886 149.594 122.337C149.065 122.779 148.324 123 147.371 123H143.12V113.874H147.228C148.155 113.874 148.879 114.086 149.399 114.511C149.928 114.936 150.192 115.512 150.192 116.24C150.192 116.777 150.049 117.224 149.763 117.579C149.486 117.934 149.113 118.181 148.645 118.32ZM145.343 117.566H146.799C147.163 117.566 147.44 117.488 147.631 117.332C147.83 117.167 147.93 116.929 147.93 116.617C147.93 116.305 147.83 116.067 147.631 115.902C147.44 115.737 147.163 115.655 146.799 115.655H145.343V117.566ZM146.981 121.206C147.354 121.206 147.64 121.124 147.839 120.959C148.047 120.786 148.151 120.539 148.151 120.218C148.151 119.897 148.043 119.646 147.826 119.464C147.618 119.282 147.328 119.191 146.955 119.191H145.343V121.206H146.981ZM153.873 113.874V119.334C153.873 119.88 154.008 120.3 154.276 120.595C154.545 120.89 154.939 121.037 155.459 121.037C155.979 121.037 156.378 120.89 156.655 120.595C156.933 120.3 157.071 119.88 157.071 119.334V113.874H159.294V119.321C159.294 120.136 159.121 120.825 158.774 121.388C158.428 121.951 157.96 122.376 157.37 122.662C156.79 122.948 156.14 123.091 155.42 123.091C154.701 123.091 154.055 122.952 153.483 122.675C152.92 122.389 152.474 121.964 152.144 121.401C151.815 120.829 151.65 120.136 151.65 119.321V113.874H153.873ZM164.157 123.091C163.49 123.091 162.892 122.983 162.363 122.766C161.835 122.549 161.41 122.229 161.089 121.804C160.777 121.379 160.613 120.868 160.595 120.27H162.961C162.996 120.608 163.113 120.868 163.312 121.05C163.512 121.223 163.772 121.31 164.092 121.31C164.422 121.31 164.682 121.236 164.872 121.089C165.063 120.933 165.158 120.721 165.158 120.452C165.158 120.227 165.08 120.04 164.924 119.893C164.777 119.746 164.591 119.624 164.365 119.529C164.149 119.434 163.837 119.325 163.429 119.204C162.84 119.022 162.359 118.84 161.986 118.658C161.614 118.476 161.293 118.207 161.024 117.852C160.756 117.497 160.621 117.033 160.621 116.461C160.621 115.612 160.929 114.949 161.544 114.472C162.16 113.987 162.961 113.744 163.949 113.744C164.955 113.744 165.765 113.987 166.38 114.472C166.996 114.949 167.325 115.616 167.368 116.474H164.963C164.946 116.179 164.838 115.95 164.638 115.785C164.439 115.612 164.183 115.525 163.871 115.525C163.603 115.525 163.386 115.599 163.221 115.746C163.057 115.885 162.974 116.088 162.974 116.357C162.974 116.652 163.113 116.881 163.39 117.046C163.668 117.211 164.101 117.388 164.69 117.579C165.28 117.778 165.756 117.969 166.12 118.151C166.493 118.333 166.814 118.597 167.082 118.944C167.351 119.291 167.485 119.737 167.485 120.283C167.485 120.803 167.351 121.275 167.082 121.7C166.822 122.125 166.441 122.463 165.938 122.714C165.436 122.965 164.842 123.091 164.157 123.091ZM171.076 113.874V123H168.853V113.874H171.076ZM180.851 123H178.628L174.91 117.371V123H172.687V113.874H174.91L178.628 119.529V113.874H180.851V123ZM184.686 115.655V117.501H187.663V119.217H184.686V121.219H188.053V123H182.463V113.874H188.053V115.655H184.686ZM192.798 123.091C192.131 123.091 191.533 122.983 191.004 122.766C190.475 122.549 190.051 122.229 189.73 121.804C189.418 121.379 189.253 120.868 189.236 120.27H191.602C191.637 120.608 191.754 120.868 191.953 121.05C192.152 121.223 192.412 121.31 192.733 121.31C193.062 121.31 193.322 121.236 193.513 121.089C193.704 120.933 193.799 120.721 193.799 120.452C193.799 120.227 193.721 120.04 193.565 119.893C193.418 119.746 193.231 119.624 193.006 119.529C192.789 119.434 192.477 119.325 192.07 119.204C191.481 119.022 191 118.84 190.627 118.658C190.254 118.476 189.934 118.207 189.665 117.852C189.396 117.497 189.262 117.033 189.262 116.461C189.262 115.612 189.57 114.949 190.185 114.472C190.8 113.987 191.602 113.744 192.59 113.744C193.595 113.744 194.406 113.987 195.021 114.472C195.636 114.949 195.966 115.616 196.009 116.474H193.604C193.587 116.179 193.478 115.95 193.279 115.785C193.08 115.612 192.824 115.525 192.512 115.525C192.243 115.525 192.027 115.599 191.862 115.746C191.697 115.885 191.615 116.088 191.615 116.357C191.615 116.652 191.754 116.881 192.031 117.046C192.308 117.211 192.742 117.388 193.331 117.579C193.92 117.778 194.397 117.969 194.761 118.151C195.134 118.333 195.454 118.597 195.723 118.944C195.992 119.291 196.126 119.737 196.126 120.283C196.126 120.803 195.992 121.275 195.723 121.7C195.463 122.125 195.082 122.463 194.579 122.714C194.076 122.965 193.483 123.091 192.798 123.091ZM200.796 123.091C200.129 123.091 199.531 122.983 199.002 122.766C198.473 122.549 198.049 122.229 197.728 121.804C197.416 121.379 197.251 120.868 197.234 120.27H199.6C199.635 120.608 199.752 120.868 199.951 121.05C200.15 121.223 200.41 121.31 200.731 121.31C201.06 121.31 201.32 121.236 201.511 121.089C201.702 120.933 201.797 120.721 201.797 120.452C201.797 120.227 201.719 120.04 201.563 119.893C201.416 119.746 201.229 119.624 201.004 119.529C200.787 119.434 200.475 119.325 200.068 119.204C199.479 119.022 198.998 118.84 198.625 118.658C198.252 118.476 197.932 118.207 197.663 117.852C197.394 117.497 197.26 117.033 197.26 116.461C197.26 115.612 197.568 114.949 198.183 114.472C198.798 113.987 199.6 113.744 200.588 113.744C201.593 113.744 202.404 113.987 203.019 114.472C203.634 114.949 203.964 115.616 204.007 116.474H201.602C201.585 116.179 201.476 115.95 201.277 115.785C201.078 115.612 200.822 115.525 200.51 115.525C200.241 115.525 200.025 115.599 199.86 115.746C199.695 115.885 199.613 116.088 199.613 116.357C199.613 116.652 199.752 116.881 200.029 117.046C200.306 117.211 200.74 117.388 201.329 117.579C201.918 117.778 202.395 117.969 202.759 118.151C203.132 118.333 203.452 118.597 203.721 118.944C203.99 119.291 204.124 119.737 204.124 120.283C204.124 120.803 203.99 121.275 203.721 121.7C203.461 122.125 203.08 122.463 202.577 122.714C202.074 122.965 201.481 123.091 200.796 123.091ZM131.341 136.32C131.87 136.433 132.295 136.697 132.615 137.113C132.936 137.52 133.096 137.988 133.096 138.517C133.096 139.28 132.828 139.886 132.29 140.337C131.762 140.779 131.021 141 130.067 141H125.816V131.874H129.924C130.852 131.874 131.575 132.086 132.095 132.511C132.624 132.936 132.888 133.512 132.888 134.24C132.888 134.777 132.745 135.224 132.459 135.579C132.182 135.934 131.809 136.181 131.341 136.32ZM128.039 135.566H129.495C129.859 135.566 130.137 135.488 130.327 135.332C130.527 135.167 130.626 134.929 130.626 134.617C130.626 134.305 130.527 134.067 130.327 133.902C130.137 133.737 129.859 133.655 129.495 133.655H128.039V135.566ZM129.677 139.206C130.05 139.206 130.336 139.124 130.535 138.959C130.743 138.786 130.847 138.539 130.847 138.218C130.847 137.897 130.739 137.646 130.522 137.464C130.314 137.282 130.024 137.191 129.651 137.191H128.039V139.206H129.677ZM139.04 141L137.142 137.555H136.609V141H134.386V131.874H138.117C138.836 131.874 139.447 132 139.95 132.251C140.461 132.502 140.842 132.849 141.094 133.291C141.345 133.724 141.471 134.21 141.471 134.747C141.471 135.354 141.297 135.895 140.951 136.372C140.613 136.849 140.11 137.187 139.443 137.386L141.549 141H139.04ZM136.609 135.982H137.987C138.394 135.982 138.697 135.882 138.897 135.683C139.105 135.484 139.209 135.202 139.209 134.838C139.209 134.491 139.105 134.218 138.897 134.019C138.697 133.82 138.394 133.72 137.987 133.72H136.609V135.982ZM145.089 133.655V135.501H148.066V137.217H145.089V139.219H148.456V141H142.866V131.874H148.456V133.655H145.089ZM155.58 139.388H152.174L151.628 141H149.301L152.603 131.874H155.177L158.479 141H156.126L155.58 139.388ZM155.008 137.672L153.877 134.331L152.759 137.672H155.008ZM164.775 141L161.707 136.97V141H159.484V131.874H161.707V135.878L164.749 131.874H167.362L163.826 136.346L167.492 141H164.775ZM175.114 131.874V133.655H172.696V141H170.473V133.655H168.055V131.874H175.114ZM184.133 131.874V141H181.91V137.243H178.452V141H176.229V131.874H178.452V135.449H181.91V131.874H184.133ZM190.392 141L188.494 137.555H187.961V141H185.738V131.874H189.469C190.188 131.874 190.799 132 191.302 132.251C191.813 132.502 192.195 132.849 192.446 133.291C192.697 133.724 192.823 134.21 192.823 134.747C192.823 135.354 192.65 135.895 192.303 136.372C191.965 136.849 191.462 137.187 190.795 137.386L192.901 141H190.392ZM187.961 135.982H189.339C189.746 135.982 190.05 135.882 190.249 135.683C190.457 135.484 190.561 135.202 190.561 134.838C190.561 134.491 190.457 134.218 190.249 134.019C190.05 133.82 189.746 133.72 189.339 133.72H187.961V135.982ZM196.403 131.874V137.334C196.403 137.88 196.537 138.3 196.806 138.595C197.074 138.89 197.469 139.037 197.989 139.037C198.509 139.037 198.907 138.89 199.185 138.595C199.462 138.3 199.601 137.88 199.601 137.334V131.874H201.824V137.321C201.824 138.136 201.65 138.825 201.304 139.388C200.957 139.951 200.489 140.376 199.9 140.662C199.319 140.948 198.669 141.091 197.95 141.091C197.23 141.091 196.585 140.952 196.013 140.675C195.449 140.389 195.003 139.964 194.674 139.401C194.344 138.829 194.18 138.136 194.18 137.321V131.874H196.403ZM209.443 134.76C209.278 134.457 209.04 134.227 208.728 134.071C208.424 133.906 208.065 133.824 207.649 133.824C206.929 133.824 206.353 134.062 205.92 134.539C205.486 135.007 205.27 135.635 205.27 136.424C205.27 137.265 205.495 137.923 205.946 138.4C206.405 138.868 207.033 139.102 207.831 139.102C208.377 139.102 208.836 138.963 209.209 138.686C209.59 138.409 209.867 138.01 210.041 137.49H207.22V135.852H212.056V137.919C211.891 138.474 211.609 138.989 211.211 139.466C210.821 139.943 210.322 140.328 209.716 140.623C209.109 140.918 208.424 141.065 207.662 141.065C206.76 141.065 205.954 140.87 205.244 140.48C204.542 140.081 203.991 139.531 203.593 138.829C203.203 138.127 203.008 137.325 203.008 136.424C203.008 135.523 203.203 134.721 203.593 134.019C203.991 133.308 204.542 132.758 205.244 132.368C205.946 131.969 206.747 131.77 207.649 131.77C208.741 131.77 209.659 132.034 210.405 132.563C211.159 133.092 211.657 133.824 211.9 134.76H209.443ZM221.191 131.874V141H218.968V137.243H215.51V141H213.287V131.874H215.51V135.449H218.968V131.874H221.191Z" fill="black"></path><path d="M69.8195 44L67.6635 40.192H66.7395V44H64.7795V34.228H68.4475C69.2035 34.228 69.8475 34.3633 70.3795 34.634C70.9115 34.8953 71.3081 35.2547 71.5695 35.712C71.8401 36.16 71.9755 36.664 71.9755 37.224C71.9755 37.868 71.7888 38.4513 71.4155 38.974C71.0421 39.4873 70.4868 39.842 69.7495 40.038L72.0875 44H69.8195ZM66.7395 38.722H68.3775C68.9095 38.722 69.3061 38.596 69.5675 38.344C69.8288 38.0827 69.9595 37.7233 69.9595 37.266C69.9595 36.818 69.8288 36.4727 69.5675 36.23C69.3061 35.978 68.9095 35.852 68.3775 35.852H66.7395V38.722ZM74.7422 35.32C74.3969 35.32 74.1076 35.2127 73.8742 34.998C73.6502 34.774 73.5382 34.4987 73.5382 34.172C73.5382 33.8453 73.6502 33.5747 73.8742 33.36C74.1076 33.136 74.3969 33.024 74.7422 33.024C75.0876 33.024 75.3722 33.136 75.5962 33.36C75.8296 33.5747 75.9462 33.8453 75.9462 34.172C75.9462 34.4987 75.8296 34.774 75.5962 34.998C75.3722 35.2127 75.0876 35.32 74.7422 35.32ZM75.7082 36.244V44H73.7482V36.244H75.7082ZM80.6827 36.118C81.2614 36.118 81.77 36.2347 82.2087 36.468C82.6474 36.692 82.9927 36.986 83.2447 37.35V36.244H85.2187V44.056C85.2187 44.7747 85.074 45.414 84.7847 45.974C84.4954 46.5433 84.0614 46.9913 83.4827 47.318C82.904 47.654 82.204 47.822 81.3827 47.822C80.2814 47.822 79.376 47.5653 78.6667 47.052C77.9667 46.5387 77.57 45.8387 77.4767 44.952H79.4227C79.5254 45.3067 79.7447 45.5867 80.0807 45.792C80.426 46.0067 80.8414 46.114 81.3267 46.114C81.896 46.114 82.358 45.9413 82.7127 45.596C83.0674 45.26 83.2447 44.7467 83.2447 44.056V42.852C82.9927 43.216 82.6427 43.5193 82.1947 43.762C81.756 44.0047 81.252 44.126 80.6827 44.126C80.0294 44.126 79.432 43.958 78.8907 43.622C78.3494 43.286 77.92 42.8147 77.6027 42.208C77.2947 41.592 77.1407 40.8873 77.1407 40.094C77.1407 39.31 77.2947 38.6147 77.6027 38.008C77.92 37.4013 78.3447 36.9347 78.8767 36.608C79.418 36.2813 80.02 36.118 80.6827 36.118ZM83.2447 40.122C83.2447 39.646 83.1514 39.24 82.9647 38.904C82.778 38.5587 82.526 38.2973 82.2087 38.12C81.8914 37.9333 81.5507 37.84 81.1867 37.84C80.8227 37.84 80.4867 37.9287 80.1787 38.106C79.8707 38.2833 79.6187 38.5447 79.4227 38.89C79.236 39.226 79.1427 39.6273 79.1427 40.094C79.1427 40.5607 79.236 40.9713 79.4227 41.326C79.6187 41.6713 79.8707 41.9373 80.1787 42.124C80.496 42.3107 80.832 42.404 81.1867 42.404C81.5507 42.404 81.8914 42.3153 82.2087 42.138C82.526 41.9513 82.778 41.69 82.9647 41.354C83.1514 41.0087 83.2447 40.598 83.2447 40.122ZM91.501 36.132C92.089 36.132 92.6117 36.2627 93.069 36.524C93.5263 36.776 93.881 37.154 94.133 37.658C94.3943 38.1527 94.525 38.75 94.525 39.45V44H92.565V39.716C92.565 39.1 92.411 38.6287 92.103 38.302C91.795 37.966 91.375 37.798 90.843 37.798C90.3017 37.798 89.8723 37.966 89.555 38.302C89.247 38.6287 89.093 39.1 89.093 39.716V44H87.133V33.64H89.093V37.21C89.345 36.874 89.681 36.6127 90.101 36.426C90.521 36.23 90.9877 36.132 91.501 36.132ZM98.6709 37.854V41.606C98.6709 41.8673 98.7315 42.0587 98.8529 42.18C98.9835 42.292 99.1982 42.348 99.4969 42.348H100.407V44H99.1749C97.5229 44 96.6969 43.1973 96.6969 41.592V37.854H95.7729V36.244H96.6969V34.326H98.6709V36.244H100.407V37.854H98.6709ZM57.838 65.098C57.1567 65.098 56.5407 64.9813 55.99 64.748C55.4487 64.5147 55.0194 64.1787 54.702 63.74C54.3847 63.3013 54.2214 62.7833 54.212 62.186H56.312C56.34 62.5873 56.48 62.9047 56.732 63.138C56.9934 63.3713 57.348 63.488 57.796 63.488C58.2534 63.488 58.6127 63.3807 58.874 63.166C59.1354 62.942 59.266 62.6527 59.266 62.298C59.266 62.0087 59.1774 61.7707 59 61.584C58.8227 61.3973 58.5987 61.2527 58.328 61.15C58.0667 61.038 57.7027 60.9167 57.236 60.786C56.6014 60.5993 56.0834 60.4173 55.682 60.24C55.29 60.0533 54.9494 59.778 54.66 59.414C54.38 59.0407 54.24 58.546 54.24 57.93C54.24 57.3513 54.3847 56.8473 54.674 56.418C54.9634 55.9887 55.3694 55.662 55.892 55.438C56.4147 55.2047 57.012 55.088 57.684 55.088C58.692 55.088 59.5087 55.3353 60.134 55.83C60.7687 56.3153 61.1187 56.9967 61.184 57.874H59.028C59.0094 57.538 58.8647 57.2627 58.594 57.048C58.3327 56.824 57.9827 56.712 57.544 56.712C57.1614 56.712 56.8534 56.81 56.62 57.006C56.396 57.202 56.284 57.4867 56.284 57.86C56.284 58.1213 56.368 58.3407 56.536 58.518C56.7134 58.686 56.928 58.826 57.18 58.938C57.4414 59.0407 57.8054 59.162 58.272 59.302C58.9067 59.4887 59.4247 59.6753 59.826 59.862C60.2274 60.0487 60.5727 60.3287 60.862 60.702C61.1514 61.0753 61.296 61.5653 61.296 62.172C61.296 62.6947 61.1607 63.18 60.89 63.628C60.6194 64.076 60.2227 64.4353 59.7 64.706C59.1774 64.9673 58.5567 65.098 57.838 65.098ZM70.4153 57.244L65.6133 68.668H63.5273L65.2073 64.804L62.0993 57.244H64.2973L66.2993 62.662L68.3293 57.244H70.4153ZM74.4399 65.126C73.8052 65.126 73.2359 65.014 72.7319 64.79C72.2279 64.5567 71.8265 64.244 71.5279 63.852C71.2385 63.46 71.0799 63.026 71.0519 62.55H73.0259C73.0632 62.8487 73.2079 63.096 73.4599 63.292C73.7212 63.488 74.0432 63.586 74.4259 63.586C74.7992 63.586 75.0885 63.5113 75.2939 63.362C75.5085 63.2127 75.6159 63.0213 75.6159 62.788C75.6159 62.536 75.4852 62.3493 75.2239 62.228C74.9719 62.0973 74.5659 61.9573 74.0059 61.808C73.4272 61.668 72.9512 61.5233 72.5779 61.374C72.2139 61.2247 71.8965 60.996 71.6259 60.688C71.3645 60.38 71.2339 59.9647 71.2339 59.442C71.2339 59.0127 71.3552 58.6207 71.5979 58.266C71.8499 57.9113 72.2045 57.6313 72.6619 57.426C73.1285 57.2207 73.6745 57.118 74.2999 57.118C75.2239 57.118 75.9612 57.3513 76.5119 57.818C77.0625 58.2753 77.3659 58.896 77.4219 59.68H75.5459C75.5179 59.372 75.3872 59.1293 75.1539 58.952C74.9299 58.7653 74.6265 58.672 74.2439 58.672C73.8892 58.672 73.6139 58.7373 73.4179 58.868C73.2312 58.9987 73.1379 59.1807 73.1379 59.414C73.1379 59.6753 73.2685 59.876 73.5299 60.016C73.7912 60.1467 74.1972 60.282 74.7479 60.422C75.3079 60.562 75.7699 60.7067 76.1339 60.856C76.4979 61.0053 76.8105 61.2387 77.0719 61.556C77.3425 61.864 77.4825 62.2747 77.4919 62.788C77.4919 63.236 77.3659 63.6373 77.1139 63.992C76.8712 64.3467 76.5165 64.6267 76.0499 64.832C75.5925 65.028 75.0559 65.126 74.4399 65.126ZM81.3828 58.854V62.606C81.3828 62.8673 81.4434 63.0587 81.5648 63.18C81.6954 63.292 81.9101 63.348 82.2088 63.348H83.1188V65H81.8868C80.2348 65 79.4088 64.1973 79.4088 62.592V58.854H78.4848V57.244H79.4088V55.326H81.3828V57.244H83.1188V58.854H81.3828ZM91.7385 60.954C91.7385 61.234 91.7198 61.486 91.6825 61.71H86.0125C86.0592 62.27 86.2552 62.7087 86.6005 63.026C86.9458 63.3433 87.3705 63.502 87.8745 63.502C88.6025 63.502 89.1205 63.1893 89.4285 62.564H91.5425C91.3185 63.3107 90.8892 63.9267 90.2545 64.412C89.6198 64.888 88.8405 65.126 87.9165 65.126C87.1698 65.126 86.4978 64.9627 85.9005 64.636C85.3125 64.3 84.8505 63.8287 84.5145 63.222C84.1878 62.6153 84.0245 61.9153 84.0245 61.122C84.0245 60.3193 84.1878 59.6147 84.5145 59.008C84.8412 58.4013 85.2985 57.9347 85.8865 57.608C86.4745 57.2813 87.1512 57.118 87.9165 57.118C88.6538 57.118 89.3118 57.2767 89.8905 57.594C90.4785 57.9113 90.9312 58.364 91.2485 58.952C91.5752 59.5307 91.7385 60.198 91.7385 60.954ZM89.7085 60.394C89.6992 59.89 89.5172 59.4887 89.1625 59.19C88.8078 58.882 88.3738 58.728 87.8605 58.728C87.3752 58.728 86.9645 58.8773 86.6285 59.176C86.3018 59.4653 86.1012 59.8713 86.0265 60.394H89.7085ZM102.801 57.132C103.753 57.132 104.518 57.426 105.097 58.014C105.685 58.5927 105.979 59.4047 105.979 60.45V65H104.019V60.716C104.019 60.1093 103.865 59.6473 103.557 59.33C103.249 59.0033 102.829 58.84 102.297 58.84C101.765 58.84 101.34 59.0033 101.023 59.33C100.715 59.6473 100.561 60.1093 100.561 60.716V65H98.6011V60.716C98.6011 60.1093 98.4471 59.6473 98.1391 59.33C97.8311 59.0033 97.4111 58.84 96.8791 58.84C96.3378 58.84 95.9085 59.0033 95.5911 59.33C95.2831 59.6473 95.1291 60.1093 95.1291 60.716V65H93.1691V57.244H95.1291V58.182C95.3811 57.8553 95.7031 57.5987 96.0951 57.412C96.4965 57.2253 96.9351 57.132 97.4111 57.132C98.0178 57.132 98.5591 57.2627 99.0351 57.524C99.5111 57.776 99.8798 58.14 100.141 58.616C100.393 58.168 100.757 57.8087 101.233 57.538C101.718 57.2673 102.241 57.132 102.801 57.132ZM110.807 65.126C110.172 65.126 109.603 65.014 109.099 64.79C108.595 64.5567 108.194 64.244 107.895 63.852C107.606 63.46 107.447 63.026 107.419 62.55H109.393C109.43 62.8487 109.575 63.096 109.827 63.292C110.088 63.488 110.41 63.586 110.793 63.586C111.166 63.586 111.456 63.5113 111.661 63.362C111.876 63.2127 111.983 63.0213 111.983 62.788C111.983 62.536 111.852 62.3493 111.591 62.228C111.339 62.0973 110.933 61.9573 110.373 61.808C109.794 61.668 109.318 61.5233 108.945 61.374C108.581 61.2247 108.264 60.996 107.993 60.688C107.732 60.38 107.601 59.9647 107.601 59.442C107.601 59.0127 107.722 58.6207 107.965 58.266C108.217 57.9113 108.572 57.6313 109.029 57.426C109.496 57.2207 110.042 57.118 110.667 57.118C111.591 57.118 112.328 57.3513 112.879 57.818C113.43 58.2753 113.733 58.896 113.789 59.68H111.913C111.885 59.372 111.754 59.1293 111.521 58.952C111.297 58.7653 110.994 58.672 110.611 58.672C110.256 58.672 109.981 58.7373 109.785 58.868C109.598 58.9987 109.505 59.1807 109.505 59.414C109.505 59.6753 109.636 59.876 109.897 60.016C110.158 60.1467 110.564 60.282 111.115 60.422C111.675 60.562 112.137 60.7067 112.501 60.856C112.865 61.0053 113.178 61.2387 113.439 61.556C113.71 61.864 113.85 62.2747 113.859 62.788C113.859 63.236 113.733 63.6373 113.481 63.992C113.238 64.3467 112.884 64.6267 112.417 64.832C111.96 65.028 111.423 65.126 110.807 65.126Z" fill="white"></path><defs><clipPath id="clip0_114_12"><rect width="341" height="300" fill="white"></rect></clipPath></defs></svg>