<svg xmlns="http://www.w3.org/2000/svg" width="323" height="83" viewBox="0 0 323 83" fill="none"><g clip-path="url(#clip0_109_2)"><path d="M50.5576 0.923096C58.5228 0.923096 63.0435 6.5544 63.0435 12.8355C63.0435 22.6902 55.4013 29.0796 41.6234 29.0796C39.686 29.0796 37.5332 28.9712 35.2728 28.8631C35.1653 26.5888 35.0576 24.4229 35.0576 22.4736C35.0576 8.61198 41.4083 0.923096 50.5576 0.923096Z" fill="#87D447"></path><path d="M50.5576 63.7332C41.4083 63.7332 35.0576 56.0442 35.0576 42.1826C35.0576 40.2334 35.1653 38.0675 35.273 35.7932C37.5334 35.6849 39.686 35.5768 41.6237 35.5768C55.4013 35.5768 63.0437 41.9659 63.0437 51.8208C63.0437 58.1018 58.5228 63.7332 50.5576 63.7332Z" fill="#50AFCD"></path><path d="M13.0993 63.7332C5.13409 63.7332 0.613281 58.1018 0.613281 51.8208C0.613281 41.9659 8.25563 35.5768 22.0334 35.5768C23.9708 35.5768 26.1235 35.6849 28.384 35.7932C28.4917 38.0675 28.5993 40.2334 28.5993 42.1826C28.5993 56.0442 22.2486 63.7332 13.0993 63.7332Z" fill="#EFAA02"></path><path d="M13.0993 0.923096C22.2486 0.923096 28.5993 8.61198 28.5993 22.4736C28.5993 24.4229 28.4917 26.5888 28.384 28.8631C26.1235 28.9712 23.9708 29.0796 22.0334 29.0796C8.25563 29.0796 0.613281 22.6902 0.613281 12.8355C0.613281 6.5544 5.13409 0.923096 13.0993 0.923096Z" fill="#D95423"></path><path fill-rule="evenodd" clip-rule="evenodd" d="M101.265 57.9553V59.0113C101.265 61.2116 100.132 63.7636 94.9027 63.7636C92.0273 63.7636 90.0222 62.7077 89.1512 60.3315C88.1055 62.4437 85.4906 63.6761 82.4404 63.6761C75.0333 63.6761 71.1116 57.6911 71.1116 42.1133C71.1116 26.5355 75.0333 20.5507 82.4404 20.5507C85.9264 20.5507 87.9308 21.9588 88.6284 23.6311V1.89242C88.6284 0.924298 89.3253 0.220215 90.284 0.220215H97.6917C98.6504 0.220215 99.3473 0.924298 99.3473 1.89242V55.1388C99.3473 57.1631 99.9572 57.9553 101.265 57.9553ZM86.1004 55.6673C87.1468 55.6673 87.9308 55.4033 88.6277 55.0514V29.1762C87.9308 28.824 87.1468 28.56 86.1004 28.56C83.6609 28.56 81.8305 29.6162 81.8305 42.1138C81.8305 54.5231 83.6609 55.6673 86.1004 55.6673ZM132.376 59.012V57.9557C131.069 57.9557 130.459 57.1636 130.459 55.1392V32.9607C130.459 24.3356 126.014 20.4632 117.649 20.4632C110.502 20.4632 104.925 24.1595 104.925 32.5206C104.925 34.1048 106.058 34.6328 107.104 34.6328H112.507C113.727 34.6328 114.163 33.9288 114.075 32.2566C113.988 30.4084 114.424 28.2081 117.213 28.2081C119.74 28.2081 120.35 30.0563 120.35 32.1687V38.7695C118.956 38.5053 117.387 38.2413 115.121 38.2413C106.58 38.2413 103.443 44.402 103.443 50.9149C103.443 57.6918 106.058 63.7642 113.117 63.7642C116.864 63.7642 119.653 62.6202 120.786 60.244C121.483 62.7083 123.051 63.7642 125.927 63.7642C131.244 63.7642 132.376 61.2121 132.376 59.012ZM116.864 56.8103C118.259 56.8981 119.391 56.3702 120.35 55.6661V44.4886C119.391 44.4006 118.607 44.4006 117.823 44.4006C114.598 44.4886 113.552 46.9529 113.552 51.0014C113.552 54.8739 114.598 56.6342 116.864 56.8103ZM146.843 61.564V22.6633C146.843 21.6952 146.146 20.9911 145.187 20.9911H137.78C136.821 20.9911 136.124 21.6952 136.124 22.6633V61.564C136.124 62.5321 136.821 63.2364 137.78 63.2364H145.187C146.146 63.2364 146.843 62.5321 146.843 61.564ZM141.44 3.30047C144.577 3.30047 147.017 5.76476 147.017 8.93315C147.017 12.0135 144.577 14.5658 141.44 14.5658C138.39 14.5658 135.862 12.0135 135.862 8.93315C135.862 5.76476 138.39 3.30047 141.44 3.30047ZM163.139 61.5635V1.89242C163.139 0.924298 162.443 0.220215 161.484 0.220215H154.076C153.117 0.220215 152.421 0.924298 152.421 1.89242V61.5635C152.421 62.5318 153.117 63.2359 154.076 63.2359H161.484C162.443 63.2359 163.139 62.5318 163.139 61.5635ZM196.866 22.6633V63.5006C196.866 76.3498 191.985 82.8624 180.569 82.8624C177.519 82.8624 171.942 81.8063 171.942 79.8706V73.7096C171.942 72.8296 172.377 72.3892 173.162 72.3892C173.684 72.3892 174.469 72.6534 175.253 73.0051C176.386 73.4454 177.955 73.7977 179.349 73.7977C184.578 73.7977 186.147 70.7172 186.147 63.9403V60.596C184.491 62.1801 181.615 63.7642 178.042 63.7642C171.593 63.7642 168.63 59.8919 168.63 52.7631V22.6633C168.63 21.6952 169.327 20.9911 170.285 20.9911H177.693C178.652 20.9911 179.349 21.6952 179.349 22.6633V52.4988C179.349 54.6992 180.307 55.5793 182.138 55.5793C183.271 55.5793 184.839 55.2272 186.147 54.5231V22.6633C186.147 21.6952 186.844 20.9911 187.802 20.9911H195.21C196.169 20.9911 196.866 21.6952 196.866 22.6633ZM230.679 61.5635V31.464C230.679 24.3352 227.716 20.4627 221.354 20.4627C217.607 20.4627 214.644 22.3989 213.162 24.0711V1.89242C213.162 0.924298 212.465 0.220215 211.506 0.220215H204.099C203.14 0.220215 202.443 0.924298 202.443 1.89242V61.5635C202.443 62.5318 203.14 63.2359 204.099 63.2359H211.506C212.465 63.2359 213.162 62.5318 213.162 61.5635V29.7039C214.556 28.9996 216.125 28.6477 217.258 28.6477C219.088 28.6477 219.96 29.5279 219.96 31.7279V61.5635C219.96 62.5318 220.657 63.2359 221.615 63.2359H229.023C229.982 63.2359 230.679 62.5318 230.679 61.5635ZM266.236 57.9555V59.0117C266.236 61.2121 265.103 63.7642 259.873 63.7642C256.911 63.7642 254.907 62.6202 254.036 60.1559C252.38 61.9162 249.415 63.7642 245.494 63.7642C239.046 63.7642 236.082 59.8919 236.082 52.7631V22.6633C236.082 21.6952 236.78 20.9911 237.738 20.9911H245.145C246.105 20.9911 246.802 21.6952 246.802 22.6633V52.4988C246.802 54.6992 247.759 55.5793 249.591 55.5793C250.723 55.5793 252.291 55.2272 253.599 54.5231V22.6633C253.599 21.6952 254.295 20.9911 255.255 20.9911H262.662C263.62 20.9911 264.318 21.6952 264.318 22.6633V55.1392C264.318 57.1636 264.928 57.9555 266.236 57.9555ZM298.219 61.5642V31.4644C298.219 24.3356 295.255 20.4632 288.895 20.4632C284.884 20.4632 282.097 22.3114 280.441 23.9837C279.831 21.9593 278 20.9913 275.909 20.9913H271.639C270.679 20.9913 269.983 21.6953 269.983 22.6634V61.5642C269.983 62.5323 270.679 63.2364 271.639 63.2364H279.046C280.004 63.2364 280.702 62.5323 280.702 61.5642V29.7044C282.097 29.0003 283.664 28.6481 284.798 28.6481C286.629 28.6481 287.5 29.5283 287.5 31.7286V61.5642C287.5 62.5323 288.196 63.2364 289.156 63.2364H296.564C297.521 63.2364 298.219 62.5323 298.219 61.5642ZM320.789 28.2081H316.346V53.115C316.346 55.1392 316.867 56.0194 318.437 56.0194C319.11 56.0194 319.526 55.8902 320.179 55.6868C320.289 55.653 320.404 55.617 320.528 55.5793C320.651 55.538 320.763 55.4969 320.871 55.4579C321.219 55.3305 321.502 55.2274 321.836 55.2274C322.532 55.2274 322.968 55.5793 322.968 56.6355V58.3956C322.968 60.244 322.446 61.2121 321.487 61.8282C319.133 63.3242 316.956 63.8523 313.643 63.8523C308.416 63.8523 305.627 61.1239 305.627 55.6673V28.2081H302.663C301.705 28.2081 301.006 27.504 301.006 26.5359V22.6634C301.006 21.6953 301.705 20.9911 302.663 20.9911H305.627V12.4541C305.627 11.486 306.323 10.782 307.283 10.782H314.69C315.648 10.782 316.346 11.486 316.346 12.4541V20.9911H320.789C321.749 20.9911 322.446 21.6953 322.446 22.6634V26.5359C322.446 27.504 321.749 28.2081 320.789 28.2081Z" fill="white"></path></g><defs><clipPath id="clip0_109_2"><rect width="323" height="83" fill="white"></rect></clipPath></defs></svg>